<svg width="28" height="28" viewBox="0 0 28 28" fill="none" xmlns="http://www.w3.org/2000/svg">
<path id="Vector" d="M14 0C15.2852 0 16.5247 0.164062 17.7188 0.492188C18.9128 0.820312 20.0247 1.29427 21.0547 1.91406C22.0846 2.53385 23.028 3.26302 23.8848 4.10156C24.7415 4.9401 25.4753 5.88346 26.0859 6.93164C26.6966 7.97982 27.166 9.09635 27.4941 10.2812C27.8223 11.4661 27.9909 12.7057 28 14C28 15.2852 27.8359 16.5247 27.5078 17.7188C27.1797 18.9128 26.7057 20.0247 26.0859 21.0547C25.4661 22.0846 24.737 23.028 23.8984 23.8848C23.0599 24.7415 22.1165 25.4753 21.0684 26.0859C20.0202 26.6966 18.9036 27.166 17.7188 27.4941C16.5339 27.8223 15.2943 27.9909 14 28C12.7148 28 11.4753 27.8359 10.2812 27.5078C9.08724 27.1797 7.97526 26.7057 6.94531 26.0859C5.91536 25.4661 4.97201 24.737 4.11523 23.8984C3.25846 23.0599 2.52474 22.1165 1.91406 21.0684C1.30339 20.0202 0.833984 18.9036 0.505859 17.7188C0.177734 16.5339 0.00911458 15.2943 0 14C0 12.7148 0.164062 11.4753 0.492188 10.2812C0.820312 9.08724 1.29427 7.97526 1.91406 6.94531C2.53385 5.91536 3.26302 4.97201 4.10156 4.11523C4.9401 3.25846 5.88346 2.52474 6.93164 1.91406C7.97982 1.30339 9.09635 0.833984 10.2812 0.505859C11.4661 0.177734 12.7057 0.00911458 14 0ZM22.2441 9.36523L20.3848 7.50586L11.375 16.5156L7.61523 12.7559L5.75586 14.6152L11.375 20.2344L22.2441 9.36523Z" fill="#303E65"/>
</svg>
